<svg xmlns="http://www.w3.org/2000/svg" xmlns:xlink="http://www.w3.org/1999/xlink" width="2000" zoomAndPan="magnify" viewBox="0 0 1500 449.999984" height="600" preserveAspectRatio="xMidYMid meet" version="1.0"><defs><filter x="0%" y="0%" width="100%" height="100%" id="d54444cc0b"><feColorMatrix values="0 0 0 0 1 0 0 0 0 1 0 0 0 0 1 0 0 0 1 0" color-interpolation-filters="sRGB"/></filter><mask id="0c9e079e50"><g filter="url(#d54444cc0b)"><rect x="-150" width="1800" fill="#000000" y="-44.999998" height="539.99998" fill-opacity="0.8"/></g></mask><clipPath id="ed0a445034"><path d="M 0 0.503906 L 522.75 0.503906 L 522.75 191.753906 L 0 191.753906 Z M 0 0.503906 " clip-rule="nonzero"/></clipPath><clipPath id="c3c7af590f"><rect x="0" width="524" y="0" height="193"/></clipPath><clipPath id="681198e7f7"><path d="M 275 168.894531 L 834.304688 168.894531 L 834.304688 373.597656 L 275 373.597656 Z M 275 168.894531 " clip-rule="nonzero"/></clipPath><mask id="710237f149"><g filter="url(#d54444cc0b)"><rect x="-150" width="1800" fill="#000000" y="-44.999998" height="539.99998" fill-opacity="0.8"/></g></mask><clipPath id="1412930c87"><path d="M 1.328125 0.503906 L 523.738281 0.503906 L 523.738281 191.753906 L 1.328125 191.753906 Z M 1.328125 0.503906 " clip-rule="nonzero"/></clipPath><clipPath id="26d12545a4"><rect x="0" width="525" y="0" height="193"/></clipPath><clipPath id="3a61ff1b50"><path d="M 977.246094 155.199219 L 1499.65625 155.199219 L 1499.65625 346.449219 L 977.246094 346.449219 Z M 977.246094 155.199219 " clip-rule="nonzero"/></clipPath></defs><g mask="url(#0c9e079e50)"><g transform="matrix(1, 0, 0, 1, 0, 102)"><g clip-path="url(#c3c7af590f)"><g clip-path="url(#ed0a445034)"><path fill="#ffffff" d="M 472.347656 57.132812 C 472.175781 57.132812 472.007812 57.132812 471.839844 57.132812 C 471.339844 38 451.582031 22.601562 427.273438 22.601562 C 411.183594 22.601562 397.089844 29.339844 389.253906 39.445312 C 385.738281 38.351562 381.941406 37.753906 377.976562 37.753906 C 372.375 37.753906 367.09375 38.953125 362.492188 41.054688 C 358.285156 17.976562 338.628906 0.503906 315.015625 0.503906 C 294.800781 0.503906 277.488281 13.304688 270.285156 31.476562 C 263.867188 29.597656 256.933594 28.570312 249.699219 28.570312 C 234.75 28.570312 221.082031 32.949219 210.585938 40.199219 C 202.417969 17.472656 178.378906 1 149.988281 1 C 121.59375 1 97.363281 17.59375 89.292969 40.460938 C 69.019531 43.699219 53.648438 54.789062 51.621094 68.359375 C 50.808594 68.328125 49.980469 68.308594 49.15625 68.308594 C 22.132812 68.308594 0.230469 85.550781 0.230469 106.8125 C 0.230469 128.070312 22.132812 145.3125 49.15625 145.3125 C 58.824219 145.3125 67.835938 143.105469 75.421875 139.296875 C 81.75 145.414062 91.117188 149.285156 101.554688 149.285156 C 107.992188 149.285156 114.015625 147.816406 119.171875 145.253906 C 129.515625 166.464844 153.480469 181.324219 181.398438 181.324219 C 201.445312 181.324219 219.449219 173.664062 231.839844 161.488281 C 236.089844 162.90625 240.734375 163.683594 245.597656 163.683594 C 247.367188 163.683594 249.101562 163.578125 250.808594 163.382812 C 262.273438 180.28125 284.609375 191.753906 310.289062 191.753906 C 333.066406 191.753906 353.214844 182.730469 365.480469 168.902344 C 365.589844 168.902344 365.695312 168.902344 365.796875 168.902344 C 378.25 168.902344 388.84375 161.339844 392.75 150.796875 C 400.035156 150.144531 406.652344 148.027344 411.945312 144.902344 C 417.242188 151.730469 426.296875 156.230469 436.578125 156.230469 C 452.898438 156.230469 466.128906 144.890625 466.128906 130.894531 C 466.128906 130.300781 466.105469 129.707031 466.054688 129.121094 C 468.113281 129.308594 470.210938 129.402344 472.335938 129.402344 C 500.039062 129.402344 522.503906 113.226562 522.503906 93.261719 C 522.503906 73.300781 500.039062 57.125 472.335938 57.125 Z M 472.347656 57.132812 " fill-opacity="1" fill-rule="nonzero"/></g></g></g></g><g clip-path="url(#681198e7f7)"><path fill="#ffffff" d="M 780.371094 312.96875 C 780.1875 312.96875 780.003906 312.96875 779.828125 312.96875 C 779.292969 333.457031 758.144531 349.9375 732.125 349.9375 C 714.90625 349.9375 699.816406 342.726562 691.429688 331.90625 C 687.667969 333.082031 683.601562 333.71875 679.359375 333.71875 C 673.363281 333.71875 667.710938 332.4375 662.785156 330.183594 C 658.28125 354.890625 637.242188 373.597656 611.96875 373.597656 C 590.332031 373.597656 571.800781 359.890625 564.09375 340.4375 C 557.222656 342.449219 549.796875 343.550781 542.054688 343.550781 C 526.058594 343.550781 511.425781 338.863281 500.1875 331.101562 C 491.449219 355.433594 465.71875 373.066406 435.328125 373.066406 C 404.9375 373.066406 379.003906 355.300781 370.363281 330.820312 C 348.664062 327.355469 332.210938 315.480469 330.042969 300.953125 C 329.171875 300.988281 328.289062 301.003906 327.402344 301.003906 C 298.480469 301.003906 275.035156 282.546875 275.035156 259.785156 C 275.035156 237.023438 298.480469 218.570312 327.402344 218.570312 C 337.753906 218.570312 347.398438 220.929688 355.519531 225.007812 C 362.292969 218.460938 372.316406 214.3125 383.488281 214.3125 C 390.378906 214.3125 396.824219 215.886719 402.34375 218.632812 C 413.417969 195.921875 439.070312 180.015625 468.949219 180.015625 C 490.40625 180.015625 509.675781 188.214844 522.9375 201.246094 C 527.488281 199.730469 532.460938 198.898438 537.664062 198.898438 C 539.558594 198.898438 541.417969 199.011719 543.242188 199.222656 C 555.515625 181.132812 579.425781 168.847656 606.910156 168.847656 C 631.292969 168.847656 652.855469 178.507812 665.984375 193.3125 C 666.097656 193.3125 666.214844 193.3125 666.320312 193.3125 C 679.652344 193.3125 690.992188 201.40625 695.171875 212.695312 C 702.972656 213.394531 710.050781 215.660156 715.71875 219.007812 C 721.386719 211.695312 731.078125 206.875 742.082031 206.875 C 759.554688 206.875 773.714844 219.019531 773.714844 234 C 773.714844 234.640625 773.6875 235.273438 773.636719 235.902344 C 775.835938 235.703125 778.082031 235.597656 780.359375 235.597656 C 810.011719 235.597656 834.054688 252.917969 834.054688 274.289062 C 834.054688 295.660156 810.011719 312.980469 780.359375 312.980469 Z M 780.371094 312.96875 " fill-opacity="1" fill-rule="nonzero"/></g><g mask="url(#710237f149)"><g transform="matrix(1, 0, 0, 1, 648, 90)"><g clip-path="url(#26d12545a4)"><g clip-path="url(#1412930c87)"><path fill="#ffffff" d="M 51.730469 57.132812 C 51.898438 57.132812 52.070312 57.132812 52.234375 57.132812 C 52.734375 38 72.492188 22.601562 96.804688 22.601562 C 112.890625 22.601562 126.984375 29.339844 134.820312 39.445312 C 138.335938 38.351562 142.136719 37.753906 146.097656 37.753906 C 151.703125 37.753906 156.980469 38.953125 161.582031 41.054688 C 165.792969 17.976562 185.449219 0.503906 209.0625 0.503906 C 229.277344 0.503906 246.589844 13.304688 253.789062 31.476562 C 260.207031 29.597656 267.144531 28.570312 274.378906 28.570312 C 289.324219 28.570312 302.992188 32.949219 313.492188 40.199219 C 321.660156 17.472656 345.699219 1 374.089844 1 C 402.480469 1 426.710938 17.59375 434.78125 40.460938 C 455.054688 43.699219 470.429688 54.789062 472.453125 68.359375 C 473.269531 68.328125 474.09375 68.308594 474.921875 68.308594 C 501.941406 68.308594 523.847656 85.550781 523.847656 106.8125 C 523.847656 128.070312 501.941406 145.3125 474.921875 145.3125 C 465.253906 145.3125 456.238281 143.105469 448.652344 139.296875 C 442.324219 145.414062 432.960938 149.285156 422.519531 149.285156 C 416.085938 149.285156 410.0625 147.816406 404.90625 145.253906 C 394.558594 166.464844 370.59375 181.324219 342.675781 181.324219 C 322.632812 181.324219 304.628906 173.664062 292.238281 161.488281 C 287.988281 162.90625 283.34375 163.683594 278.480469 163.683594 C 276.710938 163.683594 274.972656 163.578125 273.269531 163.382812 C 261.800781 180.28125 239.464844 191.753906 213.785156 191.753906 C 191.007812 191.753906 170.863281 182.730469 158.59375 168.902344 C 158.488281 168.902344 158.382812 168.902344 158.28125 168.902344 C 145.828125 168.902344 135.230469 161.339844 131.328125 150.796875 C 124.039062 150.144531 117.425781 148.027344 112.128906 144.902344 C 106.835938 151.730469 97.78125 156.230469 87.5 156.230469 C 71.175781 156.230469 57.945312 144.890625 57.945312 130.894531 C 57.945312 130.300781 57.972656 129.707031 58.019531 129.121094 C 55.964844 129.308594 53.867188 129.402344 51.738281 129.402344 C 24.035156 129.402344 1.574219 113.226562 1.574219 93.261719 C 1.574219 73.300781 24.035156 57.125 51.738281 57.125 Z M 51.730469 57.132812 " fill-opacity="1" fill-rule="nonzero"/></g></g></g></g><g clip-path="url(#3a61ff1b50)"><path fill="#ffffff" d="M 1027.652344 211.828125 C 1027.820312 211.828125 1027.992188 211.828125 1028.15625 211.828125 C 1028.65625 192.691406 1048.414062 177.296875 1072.726562 177.296875 C 1088.8125 177.296875 1102.90625 184.035156 1110.742188 194.140625 C 1114.257812 193.042969 1118.054688 192.449219 1122.019531 192.449219 C 1127.625 192.449219 1132.902344 193.644531 1137.503906 195.75 C 1141.710938 172.671875 1161.367188 155.199219 1184.980469 155.199219 C 1205.195312 155.199219 1222.507812 168 1229.710938 186.171875 C 1236.128906 184.292969 1243.066406 183.261719 1250.300781 183.261719 C 1265.246094 183.261719 1278.914062 187.640625 1289.414062 194.894531 C 1297.578125 172.167969 1321.621094 155.695312 1350.011719 155.695312 C 1378.402344 155.695312 1402.632812 172.289062 1410.703125 195.152344 C 1430.976562 198.394531 1446.351562 209.484375 1448.375 223.054688 C 1449.191406 223.019531 1450.015625 223.003906 1450.839844 223.003906 C 1477.863281 223.003906 1499.769531 240.246094 1499.769531 261.503906 C 1499.769531 282.765625 1477.863281 300.007812 1450.839844 300.007812 C 1441.171875 300.007812 1432.160156 297.800781 1424.574219 293.992188 C 1418.246094 300.105469 1408.882812 303.980469 1398.441406 303.980469 C 1392.007812 303.980469 1385.984375 302.507812 1380.828125 299.949219 C 1370.480469 321.160156 1346.515625 336.019531 1318.597656 336.019531 C 1298.554688 336.019531 1280.550781 328.359375 1268.160156 316.183594 C 1263.910156 317.601562 1259.265625 318.378906 1254.402344 318.378906 C 1252.632812 318.378906 1250.894531 318.273438 1249.191406 318.074219 C 1237.722656 334.972656 1215.386719 346.449219 1189.707031 346.449219 C 1166.929688 346.449219 1146.785156 337.425781 1134.515625 323.59375 C 1134.410156 323.59375 1134.304688 323.59375 1134.203125 323.59375 C 1121.746094 323.59375 1111.152344 316.035156 1107.25 305.492188 C 1099.960938 304.835938 1093.34375 302.722656 1088.050781 299.59375 C 1082.757812 306.425781 1073.699219 310.925781 1063.417969 310.925781 C 1047.097656 310.925781 1033.867188 299.585938 1033.867188 285.589844 C 1033.867188 284.992188 1033.894531 284.402344 1033.941406 283.816406 C 1031.886719 284.003906 1029.785156 284.097656 1027.660156 284.097656 C 999.957031 284.097656 977.492188 267.917969 977.492188 247.957031 C 977.492188 227.996094 999.957031 211.816406 1027.660156 211.816406 Z M 1027.652344 211.828125 " fill-opacity="1" fill-rule="nonzero"/></g></svg>