<svg xmlns="http://www.w3.org/2000/svg" xmlns:xlink="http://www.w3.org/1999/xlink" width="500" zoomAndPan="magnify" viewBox="0 0 375 374.999991" height="500" preserveAspectRatio="xMidYMid meet" version="1.0"><defs><clipPath id="6bfc036e06"><path d="M 75.695312 58.496094 L 272 58.496094 L 272 316.496094 L 75.695312 316.496094 Z M 75.695312 58.496094 " clip-rule="nonzero"/></clipPath><clipPath id="198bd7d660"><path d="M 275 288 L 299.195312 288 L 299.195312 313 L 275 313 Z M 275 288 " clip-rule="nonzero"/></clipPath></defs><g clip-path="url(#6bfc036e06)"><path fill="#0059b3" d="M 271.546875 284.601562 C 271.546875 293.246094 268.089844 297.855469 261.175781 300.738281 C 234.679688 311.113281 203.574219 316.296875 173.621094 316.296875 C 143.667969 316.296875 112.5625 311.113281 86.0625 300.738281 C 79.152344 297.855469 75.695312 293.246094 75.695312 284.601562 L 75.695312 58.691406 L 271.546875 58.691406 L 271.546875 284.601562 " fill-opacity="1" fill-rule="nonzero"/></g><path fill="#ffdf01" d="M 128.113281 196.429688 C 101.042969 179.714844 91.824219 172.222656 91.25 160.695312 C 91.25 158.390625 91.824219 154.359375 92.402344 152.050781 L 90.097656 150.324219 C 87.792969 153.78125 86.640625 157.816406 86.640625 161.851562 C 86.640625 168.1875 88.945312 173.375 91.25 176.832031 C 95.28125 182.597656 99.3125 186.628906 109.105469 193.546875 C 119.472656 201.613281 126.960938 210.835938 130.996094 220.632812 L 132.722656 220.632812 L 132.722656 209.683594 C 147.125 217.75 159.796875 225.242188 166.132812 239.074219 L 167.859375 239.074219 C 164.980469 225.242188 156.917969 214.292969 128.113281 196.429688 M 207.605469 159.542969 C 201.847656 162.425781 197.8125 165.882812 193.78125 171.070312 L 205.878906 170.496094 C 206.453125 164.730469 207.03125 161.273438 207.605469 159.542969 Z M 251.386719 202.765625 C 252.539062 199.886719 253.6875 196.429688 253.6875 193.546875 L 235.832031 192.394531 C 235.257812 197.003906 234.105469 201.039062 232.375 205.074219 Z M 232.375 158.390625 C 233.527344 161.851562 234.679688 165.308594 235.257812 168.1875 L 245.625 167.613281 C 242.167969 163.578125 237.558594 160.695312 232.375 158.390625 Z M 227.769531 168.765625 C 226.617188 164.730469 224.886719 160.121094 222.582031 156.085938 L 216.824219 156.085938 C 215.09375 160.121094 213.941406 164.730469 212.792969 169.339844 Z M 236.410156 174.527344 C 236.984375 179.140625 236.984375 183.171875 236.984375 187.207031 L 254.265625 186.054688 C 253.6875 182.019531 252.539062 178.5625 250.808594 175.105469 Z M 230.648438 187.207031 C 230.648438 182.597656 230.070312 178.5625 228.921875 173.953125 L 211.640625 173.375 C 210.488281 178.5625 209.910156 183.75 209.335938 188.359375 Z M 232.953125 150.324219 L 235.257812 147.441406 L 232.375 143.40625 L 232.953125 142.253906 L 241.59375 146.867188 L 239.863281 152.628906 C 241.015625 153.207031 242.746094 154.359375 244.472656 155.511719 L 250.234375 146.289062 L 235.832031 138.796875 L 202.421875 138.796875 L 175.925781 154.359375 C 181.109375 157.816406 185.140625 161.273438 188.597656 165.308594 C 195.511719 154.933594 208.183594 148.59375 220.28125 148.59375 C 224.3125 148.59375 228.921875 149.171875 232.953125 150.324219 Z M 167.859375 149.746094 L 182.261719 141.101562 C 179.382812 139.375 175.925781 138.796875 172.46875 138.796875 C 167.285156 138.796875 159.21875 141.101562 155.1875 141.679688 C 156.917969 142.832031 163.828125 146.867188 167.859375 149.746094 Z M 171.316406 116.898438 C 166.132812 115.746094 163.253906 116.320312 160.371094 119.203125 C 162.101562 119.78125 163.828125 120.355469 165.554688 120.355469 C 168.4375 119.78125 170.164062 118.050781 171.316406 116.898438 Z M 253.113281 239.652344 L 251.386719 239.652344 C 251.386719 229.277344 242.167969 226.972656 232.375 226.972656 L 201.847656 226.972656 C 203 231.582031 203 237.34375 202.421875 243.109375 L 200.695312 243.109375 C 197.8125 220.632812 185.140625 209.105469 167.285156 197.003906 L 167.285156 207.378906 L 165.554688 207.378906 C 160.949219 196.429688 150.578125 186.628906 140.210938 179.714844 L 132.148438 173.953125 L 132.148438 184.902344 L 130.996094 184.902344 C 126.960938 173.953125 118.898438 165.308594 108.53125 155.511719 C 97.007812 145.136719 91.824219 138.796875 89.519531 131.304688 C 87.214844 127.269531 87.214844 123.238281 86.640625 118.625 C 86.640625 109.980469 90.671875 101.914062 96.433594 99.03125 L 96.433594 103.066406 C 94.128906 107.101562 92.402344 111.710938 92.402344 116.320312 C 92.402344 120.355469 93.554688 125.542969 95.28125 129.578125 C 102.191406 142.253906 124.082031 157.816406 138.484375 167.035156 C 182.835938 196.429688 191.476562 201.613281 198.390625 217.75 C 198.964844 219.480469 200.117188 221.785156 200.695312 224.667969 C 207.03125 223.515625 230.070312 220.054688 234.679688 219.480469 C 235.257812 219.480469 236.984375 218.902344 238.136719 218.902344 C 242.167969 216.597656 245.050781 213.140625 247.929688 209.105469 L 231.222656 207.378906 C 230.648438 209.105469 229.496094 210.835938 228.921875 211.988281 L 227.769531 211.988281 C 228.34375 210.257812 228.34375 208.53125 228.921875 206.800781 L 224.3125 206.226562 L 224.3125 205.074219 L 228.921875 204.496094 C 230.070312 199.886719 230.070312 195.273438 230.070312 191.242188 L 208.757812 190.089844 L 208.757812 196.429688 L 207.605469 196.429688 C 207.03125 194.121094 207.03125 192.394531 206.453125 190.089844 L 201.847656 190.089844 L 201.847656 188.9375 L 206.453125 188.9375 C 205.878906 183.75 205.878906 178.5625 205.878906 173.375 L 193.207031 172.800781 L 194.933594 176.257812 C 197.8125 183.75 197.238281 192.394531 196.085938 196.429688 L 194.359375 196.429688 C 194.359375 191.816406 192.628906 186.054688 190.902344 182.597656 C 187.445312 174.527344 179.957031 167.035156 166.707031 158.96875 L 166.707031 169.339844 L 164.980469 169.339844 C 160.949219 155.511719 150.003906 148.019531 133.875 139.949219 C 120.625 133.035156 116.59375 124.964844 117.171875 112.289062 L 121.777344 115.167969 C 122.929688 126.695312 132.148438 133.609375 141.363281 133.609375 C 147.125 133.609375 152.308594 133.035156 157.492188 131.882812 C 164.980469 130.152344 171.316406 129 177.078125 131.304688 L 177.078125 124.390625 L 173.621094 124.390625 C 171.894531 125.542969 169.011719 127.269531 164.40625 127.269531 C 159.21875 127.269531 149.425781 124.390625 149.425781 113.441406 C 149.425781 103.644531 157.492188 102.492188 163.828125 102.492188 L 175.347656 102.492188 C 177.078125 102.492188 177.652344 101.914062 178.804688 101.335938 C 178.804688 100.183594 179.382812 99.609375 179.382812 98.457031 L 179.382812 86.929688 L 148.851562 86.929688 L 148.851562 99.03125 L 137.332031 94.421875 L 137.332031 91.539062 L 143.089844 91.539062 L 143.089844 86.929688 L 122.929688 86.929688 L 122.929688 77.132812 L 116.019531 77.132812 C 111.984375 77.132812 107.953125 80.015625 107.953125 84.625 C 107.378906 89.8125 109.105469 93.847656 114.289062 93.847656 L 115.441406 93.847656 L 115.441406 99.609375 L 114.289062 99.609375 C 105.648438 99.609375 98.738281 92.691406 98.738281 84.046875 C 98.738281 74.828125 106.226562 67.914062 116.019531 67.914062 L 130.996094 67.914062 L 130.996094 77.710938 L 188.597656 77.710938 L 188.597656 92.691406 C 188.597656 95 188.597656 98.457031 188.023438 100.761719 C 188.023438 102.492188 187.445312 104.796875 184.566406 107.101562 C 182.835938 108.253906 179.957031 108.828125 175.925781 108.828125 C 172.46875 108.828125 169.011719 108.828125 165.554688 108.253906 C 159.21875 107.675781 156.917969 110.558594 156.917969 112.863281 L 156.917969 114.59375 C 159.796875 112.289062 164.40625 110.558594 169.011719 112.289062 C 177.652344 115.167969 179.957031 115.167969 184.566406 111.710938 L 185.140625 112.863281 C 184.566406 113.441406 183.988281 114.59375 182.261719 115.746094 L 186.292969 115.746094 L 186.292969 138.796875 L 199.542969 130.730469 L 236.984375 130.730469 L 254.839844 139.949219 C 257.144531 141.101562 257.722656 142.832031 258.296875 144.5625 C 258.296875 146.289062 258.296875 148.59375 257.144531 149.746094 C 256.570312 150.898438 252.539062 157.816406 250.234375 161.273438 C 257.144531 168.765625 260.601562 177.984375 260.601562 187.785156 C 260.601562 197.582031 257.144531 209.683594 245.625 218.902344 C 250.234375 220.054688 253.6875 222.9375 256.570312 226.972656 L 253.113281 239.652344 " fill-opacity="1" fill-rule="nonzero"/><path fill="#ffffff" d="M 174.773438 288.058594 L 167.859375 288.058594 L 167.859375 267.890625 L 174.773438 267.890625 C 183.988281 267.890625 187.445312 270.769531 187.445312 277.6875 C 186.871094 285.179688 182.261719 288.636719 174.773438 288.058594 Z M 174.195312 248.871094 C 179.957031 248.871094 183.414062 250.023438 183.414062 255.785156 C 183.414062 262.125 178.230469 263.855469 172.46875 263.855469 L 167.859375 263.855469 L 167.859375 248.871094 Z M 185.140625 265.585938 C 190.324219 265.007812 194.933594 260.972656 194.933594 255.210938 C 194.933594 250.023438 192.628906 244.261719 177.078125 244.261719 L 151.15625 244.261719 L 151.15625 244.835938 C 151.730469 244.835938 153.460938 245.988281 154.035156 246.566406 C 155.765625 248.296875 156.339844 250.601562 156.339844 254.058594 L 156.339844 293.246094 L 177.652344 293.246094 C 189.75 293.246094 197.8125 288.636719 197.8125 278.261719 C 198.390625 269.617188 192.054688 266.160156 185.140625 265.585938 M 111.984375 248.871094 L 119.472656 248.871094 C 125.808594 248.871094 129.265625 250.601562 129.265625 257.515625 C 129.265625 263.277344 125.234375 267.3125 118.320312 267.3125 L 112.5625 267.3125 L 112.5625 248.871094 Z M 132.148438 292.671875 L 145.972656 292.671875 L 128.113281 269.617188 C 135.027344 267.890625 140.789062 263.855469 140.789062 256.363281 C 140.789062 247.71875 135.601562 243.683594 122.929688 243.683594 L 95.28125 243.683594 L 95.28125 244.261719 C 96.433594 244.835938 97.585938 245.414062 98.160156 245.988281 C 99.890625 247.71875 100.464844 250.601562 100.464844 254.632812 L 100.464844 292.671875 L 111.984375 292.671875 L 111.984375 270.769531 L 116.019531 270.769531 L 132.148438 292.671875 M 243.898438 250.601562 C 246.777344 252.328125 247.929688 254.632812 247.929688 254.632812 L 248.503906 254.632812 L 250.808594 246.566406 C 250.808594 246.566406 246.199219 243.683594 235.832031 243.683594 C 219.703125 243.683594 208.183594 251.753906 208.183594 269.042969 C 208.183594 288.636719 222.582031 293.824219 234.679688 293.824219 C 246.199219 293.824219 250.808594 290.363281 250.808594 290.363281 L 250.808594 284.601562 C 250.808594 284.601562 246.777344 288.636719 238.136719 288.636719 C 230.648438 288.636719 220.28125 285.179688 220.28125 269.042969 C 220.28125 254.058594 226.617188 249.449219 235.257812 249.449219 C 239.863281 248.871094 242.167969 250.023438 243.898438 250.601562 " fill-opacity="1" fill-rule="nonzero"/><g clip-path="url(#198bd7d660)"><path fill="#0059b3" d="M 285.945312 299.007812 L 287.097656 299.007812 C 288.25 299.007812 288.828125 299.007812 289.402344 298.433594 C 289.980469 297.855469 289.980469 297.28125 289.980469 297.28125 C 289.980469 296.703125 289.402344 296.128906 288.828125 295.550781 L 285.945312 295.550781 Z M 288.25 293.246094 C 290.554688 293.246094 292.285156 294.976562 292.285156 297.28125 C 292.285156 299.585938 291.132812 301.316406 289.402344 301.316406 L 289.980469 301.890625 C 290.554688 303.042969 293.433594 307.078125 293.433594 307.078125 L 289.980469 307.078125 L 288.828125 304.773438 C 287.675781 302.46875 287.097656 301.890625 286.523438 301.316406 L 285.945312 301.316406 L 285.945312 307.078125 L 283.066406 307.078125 L 283.066406 293.246094 Z M 287.097656 290.363281 C 281.914062 290.363281 277.882812 294.976562 277.882812 300.164062 C 277.882812 305.347656 281.914062 309.960938 287.097656 309.960938 C 292.285156 309.960938 296.316406 305.347656 296.316406 300.164062 C 296.316406 294.976562 292.285156 290.363281 287.097656 290.363281 Z M 287.097656 312.265625 C 280.1875 312.265625 275.003906 307.078125 275.003906 300.164062 C 275.003906 293.246094 280.761719 288.058594 287.097656 288.058594 C 294.011719 288.058594 299.195312 293.246094 299.195312 300.164062 C 299.773438 306.5 294.011719 312.265625 287.097656 312.265625 " fill-opacity="1" fill-rule="nonzero"/></g></svg>